{"title":"Airline Disaster 2010 720p Esub BluRay Dual Audio English Hindi ","magnet":"magnet:?xt=urn:btih:046994017eb873d91cc6710b8a1caa34fa1bf7ce&dn=Airline+Disaster+2010+720p+Esub+BluRay+Dual+Audio+English+Hindi+&tr=udp%3A%2F%2Ftracker.leechers-paradise.org%3A6969&tr=udp%3A%2F%2Fzer0day.ch%3A1337&tr=udp%3A%2F%2Fopen.demonii.com%3A1337&tr=udp%3A%2F%2Ftracker.coppersurfer.tk%3A6969&tr=udp%3A%2F%2Fexodus.desync.com%3A6969","uploader":"jatt13","categoryP":"video","categoryS":"hd___movies","size":"758162820","seeders":"3","leechers":"248","description":"[center][img]http://i.imgur.com/qtBLGSo.png[/img]\r\n[img]http://i.imgur.com/cy8WhoH.png[/img]\r\nVideo\r\nID                             : 1\r\nFormat                         : AVC\r\nCodec ID                       : V_MPEG4/ISO/AVC\r\nDuration                       : 1 h 29 min\r\nBit rate                       : 997 kb/s\r\nWidth                          : 1 280 pixels\r\nHeight                         : 720 pixels\r\nDisplay aspect ratio           : 16:9\r\nFrame rate mode                : Constant\r\nFrame rate                     : 23.976 (24000/1001) FPS\r\nOriginal frame rate            : 23.976 (23976/1000) FPS\r\nStream size                    : 638 MiB (88%)\r\nWriting library                : x264 core 123 r2189 35cf912\r\nLanguage                       : English\r\n\r\nAudio #1\r\nFormat                         : AACAC\r\nDuration                       : 1 h 30 min\r\nBit rate                       : 79.7 kb/s\r\nChannel(s)                     : 6 channels\r\nChannel positions              : Front: L C R, Side: L R, LFE\r\nSampling rate                  : 44.1 kHz\r\nFrame rate                     : 43.066 FPS (1024 spf)\r\nStream size                    : 51.3 MiB (7%)\r\nLanguage                       : Hindi\r\n\r\nAudio #2\r\nFormat                         : AAC\r\nDuration                       : 1 h 29 min\r\nBit rate                       : 48.0 kb/s\r\nChannel(s)                     : 6 channels\r\nChannel positions              : Front: L C R, Side: L R, LFE\r\nSampling rate                  : 44.1 kHz\r\nFrame rate                     : 43.066 FPS (1024 spf)4%)\r\nLanguage                       : English\r\nText\r\nDuration                       : 1 h 23 min\r\nStream size                    : 27.7 KiB (0%)\r\nLanguage                       : English\r\n[img]http://i.imgur.com/ikXHSDF.png[/img]\r\n[img]http://i.imgur.com/49c2yVY.jpg[/img]\r\n[img]http://i.imgur.com/P2oOS8m.jpg[/img]\r\n[img]http://i.imgur.com/VEYuFo2.jpg[/img][/center]","last_updated":"2017-06-19T12:04:26.088Z","parsed":{"xt":"urn:btih:046994017eb873d91cc6710b8a1caa34fa1bf7ce","dn":"Airline Disaster 2010 720p Esub BluRay Dual Audio English Hindi ","tr":["udp://exodus.desync.com:6969","udp://open.demonii.com:1337","udp://tracker.coppersurfer.tk:6969","udp://tracker.leechers-paradise.org:6969","udp://zer0day.ch:1337"],"infoHash":"046994017eb873d91cc6710b8a1caa34fa1bf7ce","infoHashBuffer":{"type":"Buffer","data":[4,105,148,1,126,184,115,217,28,198,113,11,138,28,170,52,250,27,247,206]},"name":"Airline Disaster 2010 720p Esub BluRay Dual Audio English Hindi ","announce":["udp://exodus.desync.com:6969","udp://open.demonii.com:1337","udp://tracker.coppersurfer.tk:6969","udp://tracker.leechers-paradise.org:6969","udp://zer0day.ch:1337"],"urlList":[]}}